<svg xmlns="http://www.w3.org/2000/svg" viewBox="0 0 1080 1350" width="1080" height="1350">
  <defs>
    <style>
      .bg { fill: #e6e2d3; }
      .card { fill: #f4f3ef; }
      .olive { fill: #4a5d23; }
      .gold { fill: #f2aa4c; }
      .text-dark { fill: #2d2a26; }
      .text-light { fill: #6a655c; }
      .border { stroke: #dcd7c9; stroke-width: 1.5; fill: none; }
      .accent-line { stroke: #f2aa4c; stroke-width: 4; }
      .serif { font-family: 'Playfair Display', 'Georgia', serif; }
      .sans { font-family: 'Outfit', 'Inter', 'Helvetica', sans-serif; }
    </style>
  </defs>

  <rect class="bg" width="1080" height="1350"/>
  <rect class="card" x="60" y="60" width="960" height="1230" rx="24" ry="24"/>
  <rect class="border" x="60" y="60" width="960" height="1230" rx="24" ry="24"/>

  <text class="sans text-light" x="540" y="170" font-size="28" letter-spacing="8" text-anchor="middle">MAY 5, 2026</text>
  <line class="accent-line" x1="460" y1="200" x2="620" y2="200"/>

  <text class="serif olive" x="540" y="310" font-size="84" font-style="italic" text-anchor="middle">Marisol&#8217;s</text>
  <text class="serif olive" x="540" y="400" font-size="84" font-style="italic" text-anchor="middle">Birthday</text>

  <g transform="translate(140, 520)">
    <circle class="gold" cx="30" cy="30" r="30"/>
    <text class="serif" x="30" y="44" font-size="32" text-anchor="middle" fill="#f4f3ef">1</text>
    <text class="sans text-light" x="90" y="22" font-size="22" letter-spacing="3">MORNING</text>
    <text class="serif text-dark" x="90" y="62" font-size="42">Brunch at Madi&#8217;s</text>
  </g>
  <line class="border" x1="140" y1="630" x2="940" y2="630"/>

  <g transform="translate(140, 690)">
    <circle class="gold" cx="30" cy="30" r="30"/>
    <text class="serif" x="30" y="44" font-size="32" text-anchor="middle" fill="#f4f3ef">2</text>
    <text class="sans text-light" x="90" y="22" font-size="22" letter-spacing="3">AFTERNOON</text>
    <text class="serif text-dark" x="90" y="62" font-size="42">Bookstore browse</text>
    <text class="serif text-dark" x="90" y="112" font-size="42">+ Garden Coffee, Old Town</text>
  </g>
  <line class="border" x1="140" y1="850" x2="940" y2="850"/>

  <g transform="translate(140, 910)">
    <circle class="gold" cx="30" cy="30" r="30"/>
    <text class="serif" x="30" y="44" font-size="32" text-anchor="middle" fill="#f4f3ef">3</text>
    <text class="sans text-light" x="90" y="22" font-size="22" letter-spacing="3">EVENING</text>
    <text class="serif text-dark" x="90" y="62" font-size="42">Dinner at Azuki</text>
  </g>

  <line class="accent-line" x1="460" y1="1170" x2="620" y2="1170"/>
  <text class="serif olive" x="540" y="1230" font-size="36" font-style="italic" text-anchor="middle">happy birthday, Marisol</text>
</svg>
